/* XPM */
static char * player1_xpm[] = {
"32 32 73 1",
" 	c None",
".	c #A22633",
"+	c #B22B37",
"@	c #E43B44",
"#	c #A92835",
"$	c #C0303A",
"%	c #BC2E3A",
"&	c #A12734",
"*	c #A32834",
"=	c #A32833",
"-	c #A12633",
";	c #A22833",
">	c #A32933",
",	c #262B44",
"'	c #313653",
")	c #3E4465",
"!	c #C46D4B",
"~	c #C36B43",
"{	c #2C2B44",
"]	c #AC6043",
"^	c #D67543",
"/	c #2F3754",
"(	c #775B55",
"_	c #AE7D56",
":	c #DE8C43",
"<	c #DD8B3E",
"[	c #AB773E",
"}	c #D2863E",
"|	c #E8903D",
"1	c #EA933D",
"2	c #3A4466",
"3	c #FEAE34",
"4	c #2B314C",
"5	c #5C4B54",
"6	c #84655E",
"7	c #ECA33F",
"8	c #453551",
"9	c #5C3F5E",
"0	c #DC913F",
"a	c #EF9E34",
"b	c #C5313C",
"c	c #CD343E",
"d	c #CC343E",
"e	c #A32633",
"f	c #B52C38",
"g	c #BA2E39",
"h	c #D93741",
"i	c #E33B44",
"j	c #D2353F",
"k	c #E03A43",
"l	c #A52734",
"m	c #AF2A36",
"n	c #B95933",
"o	c #9C7074",
"p	c #94757E",
"q	c #996D74",
"r	c #AE4037",
"s	c #B55035",
"t	c #81DEDF",
"u	c #2CE8F5",
"v	c #6ED7E0",
"w	c #D77643",
"x	c #EF9B3B",
"y	c #5EE4EB",
"z	c #24C7DF",
"A	c #1DADCE",
"B	c #52E1EC",
"C	c #1DAECF",
"D	c #0B6FAE",
"E	c #9C555E",
"F	c #933D5E",
"G	c #93596C",
"H	c #9F434D",
"                                ",
"                                ",
"                                ",
"           .+@@@@@@@@           ",
"           .+@@@@@@@@           ",
"          ..+@@@@@@@@           ",
"          ..#$$$$$$$%.          ",
"          &*=-;>>;-==.          ",
"        ,')!~{]^^]{~^           ",
"        /(_:<[}||}[<1           ",
"        2_333333333333          ",
"        45673333333333          ",
"        ,890aaaaaaaaaa          ",
"          ............          ",
"        ...bcccdefccccg.        ",
"        ...h@@@ie$@@@@$.        ",
"        ...h@@@ie$@@@@$.        ",
"        ...bj@@ie$@@kcf.        ",
"        ....+@@ie$@@h...        ",
"        ....l+++.#++m...        ",
"        nnnoppppppppqrsn        ",
"        333tuuuuuuuuvwx3        ",
"           yuuzAAzuuB           ",
"           uuuCDDAuuu           ",
"          uuuu  DAuuu           ",
"          uuuu  DAuu            ",
"          uuu   DAu             ",
"        .Eppp   FGpH.           ",
"        .....   .....           ",
"                                ",
"                                ",
"                                "};
